<svg width="50" height="46" viewBox="0 0 50 46" fill="none" xmlns="http://www.w3.org/2000/svg">
<path d="M0.743652 4.48781C0.743652 2.00926 2.77296 0 5.27623 0H44.9363C47.4396 0 49.4689 2.00926 49.4689 4.4878V41.5122C49.4689 43.9907 47.4396 46 44.9363 46H5.27623C2.77296 46 0.743652 43.9907 0.743652 41.5122V4.48781Z" fill="#006FFF"/>
<path d="M9.44922 11.2238C9.44922 9.36271 10.8871 7.97559 12.7668 7.97559C14.6465 7.97559 16.1197 9.36271 16.1197 11.2238C16.1197 13.085 14.6818 14.5087 12.7668 14.5087C10.8519 14.5087 9.44922 13.1216 9.44922 11.2238ZM10.0758 16.8056H15.4562V35.4153H10.0758V16.8056Z" fill="white"/>
<path d="M18.7722 26.1113C18.7722 20.5645 22.6795 16.3682 27.8381 16.3682C30.1227 16.3682 32.0763 17.2081 33.5142 18.6667V16.8056H38.8946V28.7741C38.8946 29.7221 39.4473 30.2693 40.4064 30.2693H40.7743V35.4136H39.2642C36.684 35.4136 34.9891 34.5737 34.1408 32.8955C32.6289 34.7201 30.4553 35.851 27.8381 35.851C22.6795 35.851 18.7722 31.6548 18.7722 26.1079V26.1113ZM33.5142 26.1113C33.5142 23.4834 31.5606 21.5141 28.9082 21.5141C26.2558 21.5141 24.3391 23.4851 24.3391 26.1113C24.3391 28.7375 26.2927 30.7084 28.9082 30.7084C31.5236 30.7084 33.5142 28.7375 33.5142 26.1113Z" fill="white"/>
</svg>
