<svg width="75" height="78" viewBox="0 0 75 78" fill="none" xmlns="http://www.w3.org/2000/svg">
<path d="M58.4275 58.3494C58.2998 58.1508 58.2857 57.5871 58.0233 57.1758C54.0808 51.0351 50.2819 44.7739 46.0203 38.8495L46.0185 52.1449C46.0185 55.8405 43.3346 59.1896 41.9448 60.8347C32.5317 71.9922 12.812 67.0569 10.2381 52.4675L10.2168 23.7886L10.9294 22.7285L19.7824 17.9315V50.7267C19.7824 50.8685 20.5198 53.056 20.6687 53.3858C23.4519 59.6151 32.7125 58.789 35.524 52.9922C37.3393 49.2447 36.4388 26.1936 36.4494 20.7408C37.6123 24.0912 43.9356 34.1554 46.0203 37.4278L46.022 21.4499C50.5425 29.693 57.1688 39.0103 62.331 47.3314C63.5896 49.363 65.334 52.0775 66.5891 54.0948C69.3545 58.5444 71.9639 63.125 74.7435 67.5675H64.6391C63.6995 66.3088 62.838 64.9793 61.98 63.6675C60.8206 61.8948 59.5727 60.115 58.4346 58.3494H58.4275Z" fill="#002861"/>
<path d="M42.3678 5.67268C40.9922 5.1125 38.4492 5.03675 36.985 5.17502C6.88433 8.01136 -6.52092 43.5294 14.4644 65.2664L13.5958 65.4189C8.67477 60.5545 4.28908 55.3109 2.04482 48.6136C-9.84653 13.1416 32.8014 -15.3849 60.913 9.24162C64.3627 12.2623 67.9614 16.7792 69.415 21.1223C63.4764 13.5351 55.8395 7.35545 46.0187 5.87701C46.0187 5.87701 46.0435 4.4553 46.0187 3.74976C46.0187 3.74976 43.6016 5.02741 42.3678 5.67268Z" fill="#4485DF"/>
<path d="M61.973 63.6675C49.1775 80.0757 24.98 82.983 8.97952 69.3295C7.95134 68.4538 3.02675 63.6462 2.77148 62.7741C2.62612 62.2742 2.80693 62.1465 3.29266 62.2529C17.8856 79.4553 45.9441 76.6579 58.4276 58.3494C59.5656 60.115 60.8136 61.8948 61.973 63.6675Z" fill="#4485DF"/>
<path d="M46.0186 7.29517C62.8877 14.3116 72.2582 31.2055 68.4682 49.4219C68.1597 50.9039 67.8229 53.1659 66.582 54.0948C65.3269 52.0774 63.9407 50.0991 62.682 48.0676C63.306 47.713 63.267 47.0748 63.4053 46.4863C65.1248 39.1331 64.3484 31.3367 61.3242 24.4267C58.3424 17.6159 52.8967 11.0781 46.0186 8.00071C46.0186 7.76317 46.0221 7.52917 46.0186 7.29163V7.29517Z" fill="#4485DF"/>
<path d="M36.4287 8.59635L46.0167 3.74976L46.0183 15.8077C46.0183 15.8077 37.4213 20.9841 36.4428 21.4769C36.4605 17.1869 36.4429 12.8863 36.4287 8.59635Z" fill="#002861"/>
<path d="M36.5176 21.2726H46.4448V21.6271H36.5176V21.2726Z" fill="#4485DF"/>
</svg>
