<svg width="154" height="36" viewBox="0 0 154 36" fill="none" xmlns="http://www.w3.org/2000/svg">
<path d="M12.2766 12.8162C12.2064 12.0392 11.894 11.4352 11.3395 11.0044C10.792 10.5664 10.0094 10.3474 8.99159 10.3474C8.31774 10.3474 7.75621 10.4357 7.30698 10.6123C6.85775 10.7889 6.52083 11.0326 6.29622 11.3434C6.0716 11.6472 5.95578 11.9968 5.94877 12.3924C5.93473 12.7173 5.9979 13.0034 6.13828 13.2506C6.28569 13.4978 6.49626 13.7168 6.77001 13.9075C7.05078 14.0912 7.3877 14.2536 7.78078 14.3949C8.17385 14.5362 8.61606 14.6598 9.1074 14.7658L10.9605 15.1896C12.0274 15.4227 12.968 15.7335 13.7822 16.122C14.6034 16.5105 15.2913 16.9732 15.8458 17.51C16.4074 18.0468 16.832 18.6649 17.1198 19.3642C17.4076 20.0635 17.555 20.8476 17.562 21.7164C17.555 23.0868 17.2111 24.2629 16.5302 25.2447C15.8493 26.2266 14.8702 26.9788 13.5927 27.5015C12.3222 28.0243 10.7885 28.2856 8.99159 28.2856C7.18765 28.2856 5.61535 28.0137 4.27469 27.4698C2.93402 26.9259 1.89167 26.0994 1.14764 24.9904C0.403603 23.8814 0.0210576 22.4793 0 20.784H4.99065C5.03276 21.4833 5.21877 22.0661 5.54867 22.5323C5.87857 22.9985 6.33131 23.3516 6.90689 23.5918C7.48948 23.832 8.16332 23.9521 8.92841 23.9521C9.63033 23.9521 10.227 23.8567 10.7183 23.666C11.2167 23.4753 11.5992 23.2104 11.8659 22.8713C12.1327 22.5323 12.2695 22.1438 12.2766 21.7058C12.2695 21.2961 12.1432 20.9465 11.8975 20.6569C11.6519 20.3602 11.2728 20.1059 10.7604 19.894C10.255 19.675 9.60927 19.4737 8.82313 19.29L6.56996 18.7603C4.70286 18.3294 3.23234 17.6336 2.1584 16.673C1.08447 15.7052 0.551007 14.3985 0.558026 12.7526C0.551007 11.4105 0.908985 10.2344 1.63196 9.22432C2.35494 8.21422 3.35517 7.42662 4.63267 6.86153C5.91016 6.29644 7.36664 6.01389 9.00212 6.01389C10.6727 6.01389 12.1221 6.29997 13.3505 6.87212C14.5859 7.43722 15.544 8.23188 16.2249 9.25611C16.9057 10.2803 17.2532 11.467 17.2672 12.8162H12.2766Z" fill="#4C4B67"/>
<path d="M25.406 6.31056V28.0101H20.1942V6.31056H25.406Z" fill="#4C4B67"/>
<path d="M28.6778 6.31056H35.1319L40.6069 19.7456H40.8596L46.3346 6.31056H52.7887V28.0101H47.7138V14.681H47.5348L42.3547 27.8724H39.1118L33.9317 14.6068H33.7527V28.0101H28.6778V6.31056Z" fill="#4C4B67"/>
<path d="M56.0395 28.0101V6.31056H64.9468C66.5612 6.31056 67.9546 6.62843 69.1268 7.26416C70.306 7.89282 71.215 8.77225 71.8537 9.90243C72.4925 11.0256 72.8118 12.3323 72.8118 13.8228C72.8118 15.3203 72.4854 16.6306 71.8327 17.7537C71.1869 18.8698 70.2639 19.7351 69.0636 20.3496C67.8633 20.9641 66.4384 21.2714 64.7889 21.2714H59.2929V17.1392H63.8203C64.6064 17.1392 65.2627 17.0014 65.7891 16.7259C66.3226 16.4504 66.7262 16.0655 66.9999 15.571C67.2737 15.0695 67.4106 14.4868 67.4106 13.8228C67.4106 13.1517 67.2737 12.5725 66.9999 12.0851C66.7262 11.5907 66.3226 11.2092 65.7891 10.9408C65.2557 10.6724 64.5994 10.5382 63.8203 10.5382H61.2512V28.0101H56.0395Z" fill="#4C4B67"/>
<path d="M77.4392 28.0101H71.8379L79.1133 6.31056H86.0518L93.3272 28.0101H87.7259L82.6615 11.7778H82.4931L77.4392 28.0101ZM76.6917 19.4702H88.3997V23.4541H76.6917V19.4702Z" fill="#4C4B67"/>
<path d="M92.2506 10.57V6.31056H110.476V10.57H103.938V28.0101H98.7995V10.57H92.2506Z" fill="#4C4B67"/>
<path d="M116.481 3.5122C116.481 1.57246 118.044 0 119.972 0H150.51C152.437 0 154 1.57246 154 3.51219V32.4878C154 34.4275 152.437 36 150.51 36H119.972C118.044 36 116.481 34.4275 116.481 32.4878V3.5122Z" fill="#006FFF"/>
<path d="M123.185 8.78404C123.185 7.3275 124.292 6.24192 125.74 6.24192C127.187 6.24192 128.321 7.3275 128.321 8.78404C128.321 10.2406 127.214 11.3548 125.74 11.3548C124.265 11.3548 123.185 10.2692 123.185 8.78404ZM123.668 13.1524H127.81V27.7165H123.668V13.1524Z" fill="white"/>
<path d="M130.364 20.4351C130.364 16.0941 133.372 12.81 137.345 12.81C139.104 12.81 140.608 13.4674 141.715 14.6089V13.1524H145.858V22.519C145.858 23.2609 146.284 23.6892 147.022 23.6892H147.305V27.7152H146.143C144.156 27.7152 142.851 27.0578 142.198 25.7445C141.033 27.1724 139.36 28.0575 137.345 28.0575C133.372 28.0575 130.364 24.7735 130.364 20.4325V20.4351ZM141.715 20.4351C141.715 18.3785 140.211 16.8373 138.168 16.8373C136.126 16.8373 134.65 18.3798 134.65 20.4351C134.65 22.4904 136.155 24.0328 138.168 24.0328C140.182 24.0328 141.715 22.4904 141.715 20.4351Z" fill="white"/>
</svg>
